<?xml version="1.0" standalone="no"?>
<!DOCTYPE svg PUBLIC "-//W3C//DTD SVG 20010904//EN"
 "http://www.w3.org/TR/2001/REC-SVG-20010904/DTD/svg10.dtd">
<svg version="1.0" xmlns="http://www.w3.org/2000/svg"
 width="360.000000pt" height="360.000000pt" viewBox="0 0 360.000000 360.000000"
 preserveAspectRatio="xMidYMid meet">

<g transform="translate(0.000000,360.000000) scale(0.100000,-0.100000)"
fill="#000000" stroke="none">
<path d="M1052 2659 c-24 -12 -54 -36 -67 -53 -12 -17 -53 -110 -90 -206 -54
-144 -65 -182 -60 -214 10 -69 53 -134 108 -162 24 -13 27 -20 27 -67 0 -80 8
-99 39 -95 24 3 26 7 29 64 l3 61 58 6 c68 6 123 32 170 80 l34 36 24 -30 c69
-82 201 -112 301 -69 29 12 65 37 81 55 l29 33 44 -42 c96 -92 256 -88 354 9
l42 42 32 -34 c96 -101 263 -111 358 -20 42 40 59 72 72 134 10 46 7 55 -60
228 -76 197 -89 219 -140 246 -33 18 -71 19 -690 19 -648 0 -655 0 -698 -21z
m1366 -59 c27 -18 34 -33 107 -228 54 -143 57 -156 46 -192 -32 -107 -148
-152 -257 -100 -55 27 -73 49 -95 112 -10 32 -25 57 -38 63 -22 10 -25 19 -42
142 -10 73 -13 81 -26 67 -14 -13 -14 -19 0 -57 9 -23 18 -56 20 -74 3 -17 8
-37 12 -42 3 -6 4 -11 1 -11 -2 0 -12 -3 -22 -7 -14 -5 -16 -3 -11 12 6 14 5
15 -6 7 -19 -16 -283 -18 -302 -2 -13 11 -14 10 -9 -4 5 -13 2 -15 -17 -7 -23
8 -24 12 -22 105 1 56 -2 96 -7 96 -6 0 -10 -46 -10 -109 0 -80 -3 -110 -13
-114 -7 -3 -21 -32 -30 -65 -27 -98 -95 -142 -203 -129 -74 8 -154 85 -154
149 0 15 -8 33 -19 40 -19 13 -19 18 -5 113 16 113 16 129 4 99 -8 -21 -25
-133 -22 -146 1 -5 -4 -8 -10 -8 -9 0 -8 -4 2 -10 9 -6 11 -10 3 -10 -7 0 -10
-7 -7 -17 4 -11 3 -14 -3 -7 -5 8 -63 12 -168 13 l-161 2 -17 -39 c-24 -55
-22 -73 16 -116 24 -29 45 -41 87 -51 30 -7 46 -14 35 -14 -69 -3 -144 49
-165 115 -10 28 -4 51 50 195 66 178 78 202 112 221 32 18 209 23 808 22 430
0 519 -2 538 -14z m-291 -192 c-3 -8 -6 -5 -6 6 -1 11 2 17 5 13 3 -3 4 -12 1
-19z m-333 -203 l6 -40 -13 44 c-7 25 -18 46 -25 49 -7 2 -12 9 -12 15 0 28
39 -32 44 -68z m341 8 c-8 -26 -23 -59 -33 -73 -76 -103 -242 -100 -294 5 -5
11 3 5 19 -13 15 -18 33 -32 40 -32 6 0 13 -6 15 -12 7 -21 120 -15 159 9 19
11 33 26 31 32 -1 7 2 10 7 7 10 -7 51 70 51 95 0 14 8 29 16 29 2 0 -3 -21
-11 -47z m-880 -13 c-4 -17 -9 -29 -12 -26 -3 2 -2 19 2 36 4 17 9 29 12 26 3
-2 2 -19 -2 -36z m-28 -60 c-23 -33 -64 -60 -99 -65 l-33 -5 34 11 c19 6 50
26 69 45 38 38 50 44 29 14z"/>
<path d="M1080 2451 c0 -5 9 -7 20 -4 11 3 20 7 20 9 0 2 -9 4 -20 4 -11 0
-20 -4 -20 -9z"/>
<path d="M1026 2415 c-11 -8 -17 -17 -14 -20 2 -3 13 4 23 15 21 23 18 25 -9
5z"/>
<path d="M982 2345 c-6 -14 -7 -25 -2 -25 9 0 25 39 18 46 -3 2 -10 -7 -16
-21z"/>
<path d="M1230 2289 c0 -5 5 -7 10 -4 6 3 10 8 10 11 0 2 -4 4 -10 4 -5 0 -10
-5 -10 -11z"/>
<path d="M2450 1871 c-6 -13 -10 -150 -10 -379 0 -352 0 -359 -21 -378 -20
-18 -44 -19 -573 -19 l-551 0 -3 308 c-1 203 1 315 8 328 10 18 20 19 203 17
l192 -3 5 -270 c3 -148 7 -271 8 -273 1 -2 14 -2 30 0 l27 3 0 278 0 279 -33
29 -32 29 -196 0 c-209 0 -238 -6 -262 -52 -9 -16 -13 -116 -15 -348 l-2 -325
-68 1 c-56 0 -72 5 -90 23 -21 21 -22 31 -27 249 -5 224 -5 227 -27 230 -40 6
-45 -24 -41 -251 3 -202 4 -214 26 -250 44 -70 8 -67 742 -67 728 0 711 -1
750 62 19 32 20 50 20 404 0 375 -2 394 -37 394 -7 0 -17 -9 -23 -19z"/>
<path d="M980 1801 c-12 -24 -13 -130 -1 -149 4 -8 19 -12 32 -10 23 3 24 7
27 82 2 57 -1 82 -10 87 -21 14 -37 10 -48 -10z"/>
<path d="M1896 1789 c-25 -30 -26 -34 -26 -179 0 -145 1 -149 26 -179 l26 -31
163 0 c159 0 165 1 192 24 l28 24 3 156 3 156 -30 30 -29 30 -165 0 -165 0
-26 -31z m344 -178 l0 -139 -83 -7 c-62 -5 -187 -3 -214 4 -2 1 -3 64 -3 141
l0 140 150 0 150 0 0 -139z"/>
<path d="M1362 1508 c-7 -7 -12 -44 -12 -95 0 -70 3 -84 18 -92 32 -17 42 6
42 94 0 73 -9 105 -30 105 -3 0 -11 -5 -18 -12z"/>
</g>
</svg>
